<svg xmlns="http://www.w3.org/2000/svg" viewBox="0 0 164.91 164.91"><defs><style>.cls-1,.cls-2{stroke:#000;stroke-miterlimit:10;}.cls-2{fill:none;}</style></defs><title>Fichier 12logoIconTomCookiesFinal</title><g id="Calque_2" data-name="Calque 2"><g id="Texte-Logo2"><path d="M22.71,115.09c31.28,7.26,52.93-36,64.94-62.83C75,49,59.93,46.19,51.88,56.88c-6.47,8.58-5,21.51,4.09,19.93C48.71,87.77,31,87.24,27.2,74.43c-4.49-14.65,8.58-28.9,25.34-32.2,16.5-3.44,45,.79,67.06,1.45,12.94.39,23.76-.66,28.38-5.28a27.63,27.63,0,0,1-9.5,16.1c-11.62,9-25.74,4.89-39.6.27C88.18,72.45,66.67,141.1,37,145.59,34.85,135,31.29,125.26,22.71,115.09Z"/><path d="M117,57.8c-.24.14,0,0,0,0l.2-.15.38-.29L102.93,11.4,91.39,44.68a3,3,0,0,1,1,.37L102.8,14.39l14,43.58A1.77,1.77,0,0,1,117,57.8Z"/><polygon class="cls-1" points="96.56 32.82 102.45 24.29 103.76 28.55 104.51 25.25 107.34 28.55 102.8 14.38 96.56 32.82"/><circle class="cls-2" cx="82.46" cy="82.46" r="81.96"/></g></g></svg>