<svg xmlns="http://www.w3.org/2000/svg" viewBox="0 0 234.7 294.84"><defs><style>.cls-1{fill:#fff;}</style></defs><title>Fichier 13logoTomWhite</title><g id="Calque_2" data-name="Calque 2"><g id="Texte-Logo2"><path class="cls-1" d="M0,175.17c31.29,7.26,52.93-36,65-62.84C52.27,109,37.23,106.26,29.17,117c-6.47,8.58-5,21.52,4.1,19.94-7.27,11-25,10.42-28.78-2.38C0,119.86,13.07,105.6,29.83,102.3c16.5-3.43,45,.79,67.06,1.45,12.94.4,23.76-.66,28.38-5.28a27.61,27.61,0,0,1-9.5,16.11c-11.62,9-25.74,4.88-39.6.26C65.47,132.53,44,201.17,14.26,205.66,12.14,195.1,8.58,185.33,0,175.17Z"/><path class="cls-1" d="M91.48,146.13c12.93,1.84,12.27,20.33,4,32.6,1.32,2.11,7.13-.26,10.16-5.81l3.3,2.91c-3.3,7.39-11.48,10.43-16.63,7.65-17,25.48-44.09,25-40.66-.66C53.86,163.29,72.87,143.49,91.48,146.13ZM87.91,151c-5.67-.66-11.48,2.9-16.23,8.18S63.1,171.34,62,177c-2.64,12.93,14,9.1,18.48,2.11C69.83,171.34,76.17,156.82,87.91,151Zm4.36,1.72c-7.26,1.84-14.92,16.5-7.13,21.38C90.55,167.77,94.91,157.61,92.27,152.73Z"/><path class="cls-1" d="M111.94,156.29c1.58-4.88,2-8.71,1.06-10.16h13.33c-.93,1.84-3,10-6.47,17.82,12.8-24.16,34.72-22.84,24,.13,12.15-24.69,42-23.63,27.86,2.38-11.36,19.93-5.41,26.13,8.31,9.24l4,2.11c-7,12.8-14.38,24.29-24.55,24.29-7,.13-9.77-8.32-7.39-17.82,2.24-9.77,13.46-26.27,6.2-26.67-12,0-22.17,31-22.17,44.49H121.18c7.26-16.24,20.46-45,13.07-45-8.71,0-27.46,35.51-28.65,45.15H90C95.83,189,107.85,168.7,111.94,156.29Z"/><path class="cls-1" d="M187.57,141.11c0,2.11,0,3.7-1.58,5.28-.13,0-.26.13-.4.26s-.26.14-.39.14a.85.85,0,0,1-.79,0,1.25,1.25,0,0,1-.53-.14l-.4-.39c-.13-.13-.26-.27-.26-.4a17,17,0,0,1,.92-5.28,1.8,1.8,0,0,0,.27-.39,1.16,1.16,0,0,1,.92-.4,3.72,3.72,0,0,1,1.85.26A.91.91,0,0,1,187.57,141.11Z"/><path class="cls-1" d="M184.54,194.84l10.82-14.79c-.92,4.89,7,7.26,9.11,2.25,2.77-6.74-3.3-12.41-4.09-16.24-2.51,4.36-6.07,10.82-8,13.33l-3.3-2.9L201.43,155c5.28-9.11,16.37-11.75,22.31-4.75,4.75,5.81,2,15.71-5.81,17,0-3.83-2.64-6.87-3.16-9.51,6.86,5.94,8.44-6.07,1.58-7.13-2.77-.52-5.94,1.72-5.94,8.19,0,8.84,10.16,18.08,7.79,26.4,5.41-2,8.45-5.81,12.54-12.41l4,1.59c-6.07,12.4-16.5,22.7-26.27,26.26C200.51,203.68,192.33,202.36,184.54,194.84Z"/><path class="cls-1" d="M83.94,247.2a5.49,5.49,0,0,1-2.11,4.32,8.1,8.1,0,0,1-10.18,0,5.5,5.5,0,0,1-2.12-4.32V216.85a5.53,5.53,0,0,1,2.12-4.33,8.1,8.1,0,0,1,10.18,0,5.52,5.52,0,0,1,2.11,4.33v6.76h-4.8v-9.4a2.33,2.33,0,0,0-.71-1.7,2.4,2.4,0,0,0-3.39,0,2.33,2.33,0,0,0-.71,1.7v35.62a2.41,2.41,0,0,0,4.81,0v-9.4h4.8Z"/><path class="cls-1" d="M100.79,247.2a5.69,5.69,0,0,1-1.92,4.35,7.54,7.54,0,0,1-9.71,0,5.67,5.67,0,0,1-1.94-4.35V227.66a5.67,5.67,0,0,1,1.94-4.35,7.51,7.51,0,0,1,9.71,0,5.69,5.69,0,0,1,1.92,4.35Zm-4.69,2.63V225c0-1.6-.69-2.4-2.08-2.4s-2.11.8-2.11,2.4v24.81c0,1.61.7,2.41,2.11,2.41S96.1,251.44,96.1,249.83Z"/><path class="cls-1" d="M117.34,247.2a5.69,5.69,0,0,1-1.92,4.35,7.54,7.54,0,0,1-9.71,0,5.66,5.66,0,0,1-1.93-4.35V227.66a5.66,5.66,0,0,1,1.93-4.35,7.51,7.51,0,0,1,9.71,0,5.69,5.69,0,0,1,1.92,4.35Zm-4.69,2.63V225c0-1.6-.69-2.4-2.08-2.4s-2.11.8-2.11,2.4v24.81c0,1.61.71,2.41,2.11,2.41S112.65,251.44,112.65,249.83Z"/><path class="cls-1" d="M135.45,253h-6.07l-3.89-15.3v14.21H127V253H119.3v-1.09h1.53V212.1H119.3V211h6.19v24.66l6-12.77h-1.55v-1.08h4.57v1.08H133l-4.43,9.61,5.28,19.42h1.61Z"/><path class="cls-1" d="M144.15,253h-7.68v-1.09H138v-29h-1.5v-1.08h6.18v30.11h1.5Zm-1.5-34.81H138V211h4.68Z"/><path class="cls-1" d="M159.85,247.2a5.69,5.69,0,0,1-1.92,4.35,7.54,7.54,0,0,1-9.71,0,5.66,5.66,0,0,1-1.93-4.35V227.66a5.66,5.66,0,0,1,1.93-4.35,7.51,7.51,0,0,1,9.71,0,5.69,5.69,0,0,1,1.92,4.35v10.25H151v11.92c0,1.61.71,2.41,2.11,2.41s2.08-.8,2.08-2.41v-6.35h4.69Zm-4.69-10.37V225c0-1.6-.69-2.4-2.08-2.4s-2.11.8-2.11,2.4v11.81Z"/><path class="cls-1" d="M175.67,247.2a5.83,5.83,0,0,1-1.73,4.33,6.5,6.5,0,0,1-4.74,1.79,6.57,6.57,0,0,1-4.75-1.77,5.79,5.79,0,0,1-1.84-4.35v-3.72h4.68v6.35c0,1.61.64,2.41,1.91,2.41s1.81-.8,1.81-2.41v-4.6a6,6,0,0,0-1.64-4.51l-4.92-4.86a7.16,7.16,0,0,1-1.84-5.33v-2.87a5.88,5.88,0,0,1,1.78-4.37,7.13,7.13,0,0,1,9.38,0,5.88,5.88,0,0,1,1.78,4.37v3.72H170.9V225c0-1.6-.61-2.4-1.82-2.4s-1.79.8-1.79,2.4v4.13a6,6,0,0,0,1.61,4.48l4.93,4.87a7.25,7.25,0,0,1,1.84,5.36Z"/><path class="cls-1" d="M89.09,280H84.35v-1h4.74Z"/><path class="cls-1" d="M102,294.64H96.64v-.74h1V266.68h-1v-.75H101v28h1Z"/><path class="cls-1" d="M113.62,290.66a3.75,3.75,0,0,1-1.44,2.95,5.54,5.54,0,0,1-7,0,3.73,3.73,0,0,1-1.45-2.95V286h3.28v6.43a1.64,1.64,0,0,0,1.64,1.64,1.66,1.66,0,0,0,1.65-1.64V280.91a3.77,3.77,0,0,1-2.51.78q-4.06,0-4.06-3.78v-8a3.73,3.73,0,0,1,1.45-2.95,5.5,5.5,0,0,1,7,0,3.75,3.75,0,0,1,1.44,2.95Zm-3.28-10.49V268.12a1.66,1.66,0,0,0-1.65-1.65,1.64,1.64,0,0,0-1.64,1.65v11.19c0,1,.55,1.56,1.64,1.56A2.39,2.39,0,0,0,110.34,280.17Z"/><path class="cls-1" d="M125.91,290.66a3.75,3.75,0,0,1-1.44,2.95,5.54,5.54,0,0,1-7,0,3.76,3.76,0,0,1-1.45-2.95V269.92a3.76,3.76,0,0,1,1.45-2.95,5.5,5.5,0,0,1,7,0,3.75,3.75,0,0,1,1.44,2.95v4.62h-3.28v-6.42a1.65,1.65,0,1,0-3.29,0v11.55a3.82,3.82,0,0,1,2.51-.76q4.07,0,4.06,3.76Zm-3.28,1.8V281.27c0-1-.55-1.54-1.64-1.54a2.41,2.41,0,0,0-1.65.68v12a1.65,1.65,0,0,0,3.29,0Z"/><path class="cls-1" d="M138.2,290.66a3.75,3.75,0,0,1-1.44,2.95,5.54,5.54,0,0,1-7,0,3.76,3.76,0,0,1-1.45-2.95V286h3.29v6.43a1.59,1.59,0,0,0,.48,1.16,1.57,1.57,0,0,0,1.16.48,1.64,1.64,0,0,0,1.64-1.64v-11a1.64,1.64,0,0,0-1.64-1.64h-4.71V265.93h9.21v8.61h-3.26v-7.86h-2.66v12.43h1.42a5.18,5.18,0,0,1,3.48,1.23,3.75,3.75,0,0,1,1.44,3Z"/><path class="cls-1" d="M151,280h-4.75v-1H151Z"/><path class="cls-1" d="M182.66,128.71c-.95.38,0,0,.19-.14s.54-.28.8-.42c.5-.27,1-.55,1.49-.81L127.48,0,82.16,92.3a14.66,14.66,0,0,1,4,1L127,8.28l54.78,120.89A6.69,6.69,0,0,1,182.66,128.71Z"/><polygon class="cls-1" points="102.45 59.41 125.59 35.75 130.7 47.58 133.65 38.41 144.76 47.58 126.95 8.28 102.45 59.41"/></g></g></svg>